<svg width="18" height="18" viewBox="0 0 18 18" xmlns="http://www.w3.org/2000/svg"><title>010C156F-9932-4CBC-BE02-9EC3182AB3E3</title><g fill="none" fill-rule="evenodd"><path d="M17 17.993a.991.991 0 0 0 .993-.99V1.058A.991.991 0 0 0 17 .067H.993a.991.991 0 0 0-.993.99v15.947c0 .546.444.989.993.989H17z" fill="#B9C1C7"/><path d="M12.415 17.993V11.05h2.339l.35-2.705h-2.69V6.619c0-.784.219-1.318 1.346-1.318h1.438V2.88a19.316 19.316 0 0 0-2.095-.106c-2.073 0-3.492 1.26-3.492 3.576v1.995H7.266v2.705H9.61v6.942h2.804z" fill="#FEFEFE"/></g></svg>