<svg width="18" height="18" viewBox="0 0 18 18" xmlns="http://www.w3.org/2000/svg"><title>48F437C0-F249-493C-8EB8-CE38FB60A66D</title><path d="M9 18c-4.97 0-9-4.03-9-9s4.03-9 9-9 9 4.03 9 9-4.03 9-9 9zm2.439-3.758c-.11.139-.146.531.145.41.541-.228.537-1.146.935-1.47l.03.06.063-.283.006-.02-.04-.283c-.11.047-.251.36-.338.474-.227.292-.73.308-.604.802a.744.744 0 0 1-.069-.312l-.107.069-.002-.001c-.102-.162.194-.562.158-.769l-.166.311c-.009-.042-.068.028-.185.05 0 .139.095.384.193.408v.002l.002-.001.02.01c-.1.203.12.338-.041.543zM9 2.4c-.617 0-1.212.09-1.779.25-.136.102-.27.24-.42.299-.08.03-.46.121-.49.24.054.188-.004.18-.147.472-.167.082-.443.032-.59.15-.1.302-.374.577-.545.827.43.068-.077.389-.313.575-.235.19-.323.442-.504.656-.12.143-.29.155-.393.295-.194.26-.56.573-.64.889-.243.203-.253.744-.34 1.05-.212.734-.017 1.591.594 2.137l.941-.101c.29-.207.638-.3.83.038.181.315.37-.033.555.116 0 .19.211.43.165.671-.34.366.53 1.048.72 1.363.112.186.365.674.329.885-.324.325-.025.787.197 1.04.363.425.714.875 1.054 1.299.256.03.514.05.776.05.145 0 .288-.013.432-.022.215-.117.393-.284.52-.595.05-.19.467-.242.363-.577-.103-.335.16-.504.466-.682.418-.242.536-.525.473-1.01.117-.165-.311-.784-.165-1.08.188-.376.35-.616.599-.957.433-.592.77-.91.968-1.64.098-.357.105-.455.078-.778-.24-.062-.8.554-1.072.365-.21-.148-.452-.86-.844-.823-.236-.097-.519-.807-.672-1.11-.182-.353-.576-.593-.681-1.051.145.005 1.032.666.973 1.002.08.191.485.686.68.75.13.258.17.597.332.84.132.198 1.125-.522 1.237-.656-.03-.208.16-.281.318-.32.057-.15.05-.18.142-.32.083-.132-.023-.304.111-.294.036-.18-.046-.396-.19-.545-.114-.119-.29-.075-.413-.19l-.174-.285c-.05.112.013.49-.222.398-.31.104-.155-.175-.372-.301-.02.341-.126-.041-.278-.129-.116-.067-.36-.281-.363-.426.342.009.506.333.884.449l.23-.055c.123-.159.197.114.276.16.339.199.7-.082 1.032-.038.189.133.353.37.585.34.09.176-.073.037-.059.096a.62.62 0 0 0 .349.256l-.021-.256c.278.232.401.72.592 1.024.11.171.242.507.392.795C14.996 4.803 12.276 2.4 9 2.4zm1.856 1.626c-.167.014-.301-.309-.194-.35-.03-.128-.49-.367-.603-.505 0-.185.302-.421.37-.129l-.12.117c.223.117.907.653.945.926a.36.36 0 0 1-.398-.059zm-.019-1.03l.02-.1c.114.036.23.279.339.304-.126.134-.316-.134-.359-.204zm-1.14.66c-.062-.017-.488.001-.487-.117-.201.033-.406.3-.61.126-.1-.184.129-.3.077-.476.2-.23.062 0 .272-.076l-.06.067c.015.008 1.193.237.809.476.038-.023-.114-.028 0 0zm-.221.594c-.011.053.121 1.158-.271.874-.086-.063-.18-.085-.294.027-.16.162-.369-.056-.586-.015.204-.039-.015-.096 0 0-.023-.153-.508-.162-.6-.075-.277.276.059.358-.382.249-.263-.064-.168-.31-.526-.234l-.193-.126c.005-.184.215-.323.233-.505-.271-.259-1.35.622-1.625.4l.808-.702c.171-.316.568-.4.789-.545.233-.155.35.095.474.307.247.426-.293.22-.28.452.28.108.264.037.448-.172.126-.14-.023-.306.185-.188.125-.108-.683-.58-.233-.7-.09.104.546.428.34.593.228.293.083.495.35.545.002-.151-.015-.128.01-.223l.078.028c.025-.131-.166-.227-.109-.369.173.036.076.083.11-.048h.232c-.154.199.134.108-.02.29.045.123.16.13.145.225-.006.082.78 0 .917-.088zM6.692 4.2l.137-.027c.024-.151.157-.361.165-.508-.101.017-.266.422-.302.536zm-.536-.524l.008-.015.099-.072-.107.087z" fill="#B9C1C7" fill-rule="evenodd"/></svg>
